<svg width="21" height="21" viewBox="0 0 21 21" fill="none" xmlns="http://www.w3.org/2000/svg">
<path d="M18.5334 7.96872V4.18854C18.5334 3.01452 18.0005 2.53992 16.6766 2.53992H13.3128C11.9889 2.53992 11.456 3.01452 11.456 4.18854V7.9604C11.456 9.14274 11.9889 9.60902 13.3128 9.60902H16.6766C18.0005 9.61735 18.5334 9.14274 18.5334 7.96872Z" fill="#1FCB4F"/>
<path d="M18.5334 17.3359V13.972C18.5334 12.6482 18.0005 12.1153 16.6766 12.1153H13.3128C11.9889 12.1153 11.456 12.6482 11.456 13.972V17.3359C11.456 18.6598 11.9889 19.1927 13.3128 19.1927H16.6766C18.0005 19.1927 18.5334 18.6598 18.5334 17.3359Z" fill="#1FCB4F"/>
<path d="M8.95805 7.96872V4.18854C8.95805 3.01452 8.42516 2.53992 7.10126 2.53992H3.7374C2.4135 2.53992 1.88062 3.01452 1.88062 4.18854L1.88062 7.9604C1.88062 9.14274 2.4135 9.60902 3.7374 9.60902H7.10126C8.42516 9.61735 8.95805 9.14274 8.95805 7.96872Z" fill="#1FCB4F"/>
<path d="M8.95805 17.3359V13.972C8.95805 12.6482 8.42516 12.1153 7.10126 12.1153H3.7374C2.4135 12.1153 1.88062 12.6482 1.88062 13.972L1.88062 17.3359C1.88062 18.6598 2.4135 19.1927 3.7374 19.1927H7.10126C8.42516 19.1927 8.95805 18.6598 8.95805 17.3359Z" fill="#1FCB4F"/>
</svg>
