<svg width="16" height="16" viewBox="0 0 16 16" fill="none" xmlns="http://www.w3.org/2000/svg">
<path d="M7.55045 14.1932C4.02214 14.1932 1.14954 11.3206 1.14954 7.79227C1.14954 4.26396 4.02214 1.39136 7.55045 1.39136C11.0788 1.39136 13.9514 4.26396 13.9514 7.79227C13.9514 11.3206 11.0788 14.1932 7.55045 14.1932ZM7.55045 2.32808C4.53421 2.32808 2.08625 4.78228 2.08625 7.79227C2.08625 10.8023 4.53421 13.2565 7.55045 13.2565C10.5667 13.2565 13.0146 10.8023 13.0146 7.79227C13.0146 4.78228 10.5667 2.32808 7.55045 2.32808Z" fill="#9E9E9E"/>
<path d="M14.1075 14.8177C13.9889 14.8177 13.8702 14.774 13.7766 14.6803L12.5276 13.4313C12.3465 13.2502 12.3465 12.9505 12.5276 12.7694C12.7087 12.5883 13.0085 12.5883 13.1896 12.7694L14.4385 14.0184C14.6196 14.1995 14.6196 14.4992 14.4385 14.6803C14.3448 14.774 14.2262 14.8177 14.1075 14.8177Z" fill="#9E9E9E"/>
</svg>
